<?xml version="1.0" standalone="no"?><!DOCTYPE svg PUBLIC "-//W3C//DTD SVG 1.1//EN" "http://www.w3.org/Graphics/SVG/1.1/DTD/svg11.dtd"><svg t="1739563615675" class="icon" viewBox="0 0 1024 1024" version="1.1" xmlns="http://www.w3.org/2000/svg" p-id="10406" xmlns:xlink="http://www.w3.org/1999/xlink" width="200" height="200"><path d="M171.471 960A107.628 107.628 0 0 1 64 852.53V424.4l103.653-31.344v297.77c0.807 0.511 5.813 0.98 14.345 1.41V124a59.626 59.626 0 0 1 4.715-23.355 59.939 59.939 0 0 1 5.534-10.192 60.363 60.363 0 0 1 7.326-8.881 60.512 60.512 0 0 1 8.881-7.326 60 60 0 0 1 10.19-5.531A59.586 59.586 0 0 1 242 64h540a59.576 59.576 0 0 1 23.355 4.716 60 60 0 0 1 10.19 5.531 60.386 60.386 0 0 1 8.881 7.326 60.369 60.369 0 0 1 7.326 8.881 59.807 59.807 0 0 1 5.532 10.192A59.589 59.589 0 0 1 842 124v568.2c8.1-0.42 12.849-0.878 13.634-1.374V393.75l104.256 31.99v426.79A107.628 107.628 0 0 1 852.417 960zM333 307.2c0 98.812 80.389 179.2 179.2 179.2a22.425 22.425 0 0 0 22.4-22.4 22.428 22.428 0 0 0-22.4-22.4 135.494 135.494 0 0 1-27.087-2.729 133.523 133.523 0 0 1-25.227-7.833 134.2 134.2 0 0 1-22.83-12.392 135.206 135.206 0 0 1-19.89-16.411 135.046 135.046 0 0 1-16.411-19.891 134.381 134.381 0 0 1-12.394-22.829 133.67 133.67 0 0 1-7.83-25.228 135.3 135.3 0 0 1-2.729-27.087 135.294 135.294 0 0 1 2.729-27.086 133.759 133.759 0 0 1 7.83-25.228 134.519 134.519 0 0 1 12.394-22.832 135.454 135.454 0 0 1 16.411-19.891 135.252 135.252 0 0 1 19.89-16.411 134.615 134.615 0 0 1 22.83-12.392 133.727 133.727 0 0 1 25.227-7.83 135.354 135.354 0 0 1 27.087-2.731 135.371 135.371 0 0 1 27.087 2.731 133.792 133.792 0 0 1 25.228 7.83 134.609 134.609 0 0 1 22.829 12.392 135.4 135.4 0 0 1 19.893 16.411 135.64 135.64 0 0 1 16.411 19.891 134.7 134.7 0 0 1 12.391 22.832 133.759 133.759 0 0 1 7.83 25.228 135.3 135.3 0 0 1 2.732 27.086 22.423 22.423 0 0 0 22.4 22.4 22.425 22.425 0 0 0 22.4-22.4c0-98.811-80.39-179.2-179.2-179.2S333 208.39 333 307.2z m287.959 137.241A22.254 22.254 0 0 0 636.8 451a22.251 22.251 0 0 0 15.838-6.559 22.433 22.433 0 0 0 0-31.681l-60.909-60.909 41.8-41.8a1.114 1.114 0 0 0 0.275-1.129 1.122 1.122 0 0 0-0.87-0.765l-136.1-24.021a3.011 3.011 0 0 0-0.517-0.046 2.982 2.982 0 0 0-2.115 0.876 2.987 2.987 0 0 0-0.83 2.632l24.023 136.106a1.111 1.111 0 0 0 0.763 0.871 1.137 1.137 0 0 0 0.337 0.051 1.122 1.122 0 0 0 0.792-0.323l40.769-40.774z" fill="#FFD578" p-id="10407"></path><path d="M529.445 573.662a30.944 30.944 0 0 1-33.094 0L64.003 424.397V852.53a107.627 107.627 0 0 0 107.468 107.467h680.947a107.627 107.627 0 0 0 107.471-107.471V425.74z m0 0" fill="#F5AE6B" p-id="10408"></path></svg>