<?xml version="1.0" standalone="no"?><!DOCTYPE svg PUBLIC "-//W3C//DTD SVG 1.1//EN" "http://www.w3.org/Graphics/SVG/1.1/DTD/svg11.dtd"><svg t="1740334385776" class="icon" viewBox="0 0 1024 1024" version="1.1" xmlns="http://www.w3.org/2000/svg" p-id="5097" xmlns:xlink="http://www.w3.org/1999/xlink" width="200" height="200"><path d="M512 357.29A154.71 154.71 0 1 0 666.71 512 154.71 154.71 0 0 0 512 357.29z m0 231.44A76.74 76.74 0 1 1 588.74 512 76.74 76.74 0 0 1 512 588.74z" p-id="5098"></path><path d="M832.46 0H191.54C85.76 0 0 85.76 0 191.54v640.92C0 938.24 85.76 1024 191.54 1024h640.92c105.78 0 191.54-85.76 191.54-191.54V191.54C1024 85.76 938.24 0 832.46 0z m-503 912.53L711 789.9a55.25 55.25 0 0 0 35.7-69.51 55.25 55.25 0 0 0-69.51-35.7L111.47 866.52V329.45L234.1 711a55.25 55.25 0 0 0 69.51 35.7 55.25 55.25 0 0 0 35.7-69.51L157.48 111.47h537.07L313 234.1a55.25 55.25 0 0 0-35.7 69.51 55.25 55.25 0 0 0 69.51 35.7l565.72-181.83v537.07L789.9 313a55.25 55.25 0 0 0-69.51-35.7 55.25 55.25 0 0 0-35.7 69.51l181.83 565.72z" p-id="5099"></path></svg>